HIERARCHY
ROOT Hips
{
	OFFSET 0.00000 0.00000 0.00000
	CHANNELS 6 Xposition Yposition Zposition Zrotation Yrotation Xrotation 
	JOINT LHipJoint
	{
		OFFSET 0 0 0
		CHANNELS 3 Zrotation Yrotation Xrotation
		JOINT LeftHip
		{
			OFFSET 1.76014 -1.80163 0.38499
			CHANNELS 3 Zrotation Yrotation Xrotation
			JOINT LeftKnee
			{
				OFFSET 2.46817 -6.78126 0.00000
				CHANNELS 3 Zrotation Yrotation Xrotation
				JOINT LeftAnkle
				{
					OFFSET 2.79348 -7.67503 0.00000
					CHANNELS 3 Zrotation Yrotation Xrotation
					JOINT LeftToe
					{
						OFFSET 0.09421 -0.25885 1.91403
						CHANNELS 3 Zrotation Yrotation Xrotation
						End Site
						{
							OFFSET 0.00000 -0.00000 0.97975
						}
					}
				}
			}
		}
	}
	JOINT RHipJoint
	{
		OFFSET 0 0 0
		CHANNELS 3 Zrotation Yrotation Xrotation
		JOINT RightHip
		{
			OFFSET -1.77926 -1.80163 0.38499
			CHANNELS 3 Zrotation Yrotation Xrotation
			JOINT RightKnee
			{
				OFFSET -2.51996 -6.92353 0.00000
				CHANNELS 3 Zrotation Yrotation Xrotation
				JOINT RightAnkle
				{
					OFFSET -2.76109 -7.58603 0.00000
					CHANNELS 3 Zrotation Yrotation Xrotation
					JOINT RightToe
					{
						OFFSET -0.08067 -0.22163 1.86812
						CHANNELS 3 Zrotation Yrotation Xrotation
						End Site
						{
							OFFSET -0.00000 -0.00000 0.95558
						}
					}
				}
			}
		}
	}
	JOINT lowerback
	{
		OFFSET 0 0 0
		CHANNELS 3 Zrotation Yrotation Xrotation
		JOINT Chest
		{
			OFFSET 0.05537 1.92033 -0.03713
			CHANNELS 3 Zrotation Yrotation Xrotation
			JOINT Chest2
			{
				OFFSET 0.04452 1.90073 0.10860
				CHANNELS 3 Zrotation Yrotation Xrotation
				JOINT lowerneck
				{
					OFFSET 0 0 0
					CHANNELS 3 Zrotation Yrotation Xrotation
					JOINT Neck
					{
						OFFSET 0.00903 1.74649 0.02074
						CHANNELS 3 Zrotation Yrotation Xrotation
						JOINT Head
						{
							OFFSET -0.08608 1.67844 -0.12081
							CHANNELS 3 Zrotation Yrotation Xrotation
							End Site
							{
								OFFSET -0.03521 1.83380 -0.05059
							}
						}
					}
				}
				JOINT LeftCollar
				{
					OFFSET 0 0 0
					CHANNELS 3 Zrotation Yrotation Xrotation
					JOINT LeftShoulder
					{
						OFFSET 3.28197 0.84325 -0.19106
CHANNELS 3 Zrotation Xrotation Yrotation
						JOINT LeftElbow
						{
OFFSET 0 -5.243180 -0.000000
CHANNELS 3 Zrotation Xrotation Yrotation
							JOINT LeftWrist
							{
OFFSET 0 -2.989990 0.000000
CHANNELS 3 Zrotation Xrotation Yrotation
								JOINT lhand
								{
									OFFSET 0 0 0
CHANNELS 3 Zrotation Xrotation Yrotation
									JOINT LFingers
									{
OFFSET 0 -0.726740 0.000000
CHANNELS 3 Zrotation Xrotation Yrotation
										End Site
										{
OFFSET 0 -0.585920 0.000000
										}
									}
								}
								JOINT LThumb
								{
OFFSET 0 0.000000 0.000000
CHANNELS 3 Zrotation Xrotation Yrotation
									End Site
									{
OFFSET 0 -0.594870 0.594870
									}
								}
							}
						}
					}
				}
				JOINT RightCollar
				{
					OFFSET 0 0 0
					CHANNELS 3 Zrotation Yrotation Xrotation
					JOINT RightShoulder
					{
						OFFSET -3.30963 0.78377 0.14264
CHANNELS 3 Zrotation Xrotation Yrotation
						JOINT RightElbow
						{
OFFSET 0 -5.370450 0.000000
CHANNELS 3 Zrotation Xrotation Yrotation
							JOINT RightWrist
							{
OFFSET 0 -2.927920 0.000000
CHANNELS 3 Zrotation Xrotation Yrotation
								JOINT rhand
								{
									OFFSET 0 0 0
CHANNELS 3 Zrotation Xrotation Yrotation
									JOINT RFingers
									{
OFFSET 0 -0.784500 0.000000
CHANNELS 3 Zrotation Xrotation Yrotation
										End Site
										{
OFFSET 0 -0.632480 0.000000
										}
									}
								}
								JOINT RThumb
								{
OFFSET 0 0.000000 0.000000
CHANNELS 3 Zrotation Xrotation Yrotation
									End Site
									{
OFFSET 0 -0.642140 0.642140
									}
								}
							}
						}
					}
				}
			}
		}
	}
}
MOTION
Frames: 10
Frame Time: 0.008333333333333333
0.528400 17.245500 -0.646100 7.897900 -14.053200 7.343500 0.000000 0.000000 0.000000 -25.957700 -0.481800 -29.949900 4.485600 12.780000 38.550600 0.603300 1.604900 -15.340100 1.005500 -6.380800 -17.893400 0.000000 0.000000 0.000000 4.754800 14.237800 -36.774400 -6.196500 -14.616100 45.765500 -0.311000 7.920900 -10.624100 -1.378600 7.429800 -20.995100 9.149100 -0.026800 18.790000 5.463200 2.221100 2.604500 0.192100 0.863000 -7.590600 4.263300 6.976700 -2.738700 -16.877000 6.640100 -24.424200 -6.479100 4.089700 -6.049700 0.000000 0.000000 0.000000 10.328700 2.053300 18.532400 75.874300 -59.232500 47.798400 34.715800 -6.659500 -30.726300 0.000000 0.000000 0.000000 -7.125000 0.000000 0.000000 4.578100 65.796100 -2.300900 0.000000 0.000000 0.000000 -25.996900 -13.223600 -31.518800 -102.094600 -59.440000 -70.454500 -3.147400 -2.990700 10.024100 0.000000 0.000000 0.000000 7.125000 0.000000 -0.000000 20.535200 39.171100 3.103900
0.455169 17.314852 -0.691983 6.668559 -11.346250 6.804104 0.000000 0.000000 0.000000 -24.216005 -1.958108 -28.253084 4.357400 12.621369 37.967089 0.561429 1.394672 -14.726531 1.070409 -6.577053 -18.468319 0.000000 0.000000 0.000000 6.964445 12.526434 -34.647846 -5.823501 -14.255113 44.269407 -0.336587 6.643239 -10.641379 -1.279798 7.168024 -20.214657 9.006190 -0.261248 16.988060 5.367317 1.658227 2.525156 0.305968 0.630527 -6.726001 4.539829 7.027024 -2.872947 -17.838198 6.828122 -22.015749 -6.690405 4.169307 -5.175916 0.000000 0.000000 0.000000 7.923786 -7.983358 8.816160 77.290249 -59.380762 49.015906 33.790837 -4.921252 -28.120459 0.000000 0.000000 0.000000 -7.125000 0.000000 0.000000 4.181530 62.674837 -1.797143 0.000000 0.000000 0.000000 -24.265827 -22.041818 -24.926551 -101.137345 -59.526040 -69.629901 -13.809709 -3.777029 5.281546 0.000000 0.000000 0.000000 7.125000 0.000000 0.000000 10.690502 35.250067 2.596622
0.395767 17.388872 -0.714549 6.444598 -8.198676 5.975812 0.000000 0.000000 0.000000 -23.694506 -3.553744 -25.980451 4.031798 12.202538 36.452382 0.484752 0.862214 -13.492463 1.065647 -6.562792 -18.426483 0.000000 0.000000 0.000000 8.010028 10.877025 -31.978913 -5.396231 -13.816587 42.507644 -0.421992 3.872179 -11.557876 -2.536084 9.903152 -28.663565 7.908096 -0.670165 14.801746 4.830985 0.647838 2.426398 0.543204 0.196944 -5.695193 4.256342 7.177890 -4.225771 -17.469163 7.599710 -17.475516 -6.222235 4.351151 -3.511232 0.000000 0.000000 0.000000 3.501257 -17.381782 -3.869045 75.290083 -59.166322 47.296465 32.399148 -5.824111 -26.695290 0.000000 0.000000 0.000000 -7.125000 0.000000 0.000000 2.843918 60.733378 -1.090802 0.000000 0.000000 0.000000 -19.874424 -30.158161 -12.952460 -98.372634 -59.733429 -67.244384 -22.530243 -5.181263 -0.026953 0.000000 0.000000 0.000000 7.125000 0.000000 0.000000 3.179428 29.942604 1.168873
0.337565 17.523919 -0.668961 5.177374 -5.507616 4.986201 0.000000 0.000000 0.000000 -22.232661 -5.274873 -22.539307 3.513755 11.483478 33.928446 0.397461 1.299075 -12.451933 1.133337 -6.761133 -19.009627 0.000000 0.000000 0.000000 10.249536 9.430017 -28.305427 -4.705794 -13.044473 39.535356 -0.373611 1.939100 -11.036592 -2.040701 8.950206 -25.639813 7.389743 -1.039768 12.498257 4.321821 -0.189289 2.320367 0.414350 -0.176045 -4.577209 4.376963 7.143158 -4.781381 -16.630695 8.124014 -13.179892 -5.770533 4.394311 -2.133352 0.000000 0.000000 0.000000 -1.692386 -23.842940 -17.937449 68.126189 -58.111803 41.176883 31.938431 -6.066161 -24.800491 0.000000 0.000000 0.000000 -7.125000 0.000000 0.000000 2.791286 58.526071 -0.922642 0.000000 0.000000 0.000000 -13.163247 -33.798303 3.061660 -93.316528 -59.957963 -62.871770 -28.022117 -7.116069 -3.926647 0.000000 0.000000 0.000000 7.125000 0.000000 0.000000 -1.048669 25.533832 -0.493663
0.278129 17.738658 -0.529376 4.089194 -3.542618 4.396044 0.000000 0.000000 0.000000 -21.221061 -8.134407 -17.347715 2.603867 10.024139 29.055244 0.226905 3.677412 -11.124794 1.005537 -6.380718 -17.893184 0.000000 0.000000 0.000000 12.257764 9.179325 -23.409047 -3.626488 -11.645688 34.490363 -0.301160 -1.084844 -10.819420 -2.034988 8.935402 -25.595750 6.351362 -1.241032 9.747612 3.718183 -0.835116 1.656712 0.412905 -0.473901 -3.776443 4.066845 6.497386 -5.015977 -14.708866 7.966808 -7.580161 -4.960677 4.067806 -0.595156 0.000000 0.000000 0.000000 -5.470191 -26.514222 -30.779445 52.217836 -53.846999 27.956539 24.011344 -8.789923 -21.625032 0.000000 0.000000 0.000000 -7.125000 0.000000 0.000000 -4.967844 53.373277 1.022850 0.000000 0.000000 0.000000 -6.167153 -32.277065 17.323031 -80.175311 -59.629735 -51.502267 -28.460133 -5.543788 -8.790179 0.000000 0.000000 0.000000 7.125000 0.000000 0.000000 -1.112611 20.005680 -0.663767
0.219332 17.983036 -0.300364 2.919523 -2.627639 4.641871 0.000000 0.000000 0.000000 -20.376783 -11.979674 -11.201577 1.606391 7.992513 22.691457 -0.108364 8.753635 -10.152422 1.012613 -6.402355 -17.956504 0.000000 0.000000 0.000000 14.284735 10.941864 -17.589743 -2.353584 -9.566215 27.583556 -0.100696 -5.477789 -10.329869 -1.557371 7.875582 -22.336974 5.029997 -1.187144 5.393214 3.288173 -1.227976 1.139052 0.653728 -0.631815 -1.883355 3.341128 5.273500 -6.699823 -12.293057 7.061910 -0.675243 -4.408421 3.333836 1.618547 0.000000 0.000000 0.000000 -5.321046 -26.284411 -43.955294 34.727008 -44.613609 14.622133 21.439257 -6.007542 -20.235900 0.000000 0.000000 0.000000 -7.125000 0.000000 0.000000 -7.134849 51.448396 1.137894 0.000000 0.000000 0.000000 -3.445093 -26.963083 30.302050 -57.174619 -55.505018 -32.001947 -28.004109 -2.276901 -14.019595 0.000000 0.000000 0.000000 7.125000 0.000000 0.000000 -0.376973 14.188968 -0.273013
0.193852 18.144549 -0.076385 1.666145 -2.528851 4.974683 0.000000 0.000000 0.000000 -19.774700 -17.228071 -5.321731 1.001365 6.367816 17.855457 -0.718792 15.568213 -10.945960 0.750272 -5.532647 -15.434180 0.000000 0.000000 0.000000 16.201833 13.598252 -12.198914 -1.439178 -7.584214 21.458099 0.200504 -9.954299 -10.086926 -1.352446 7.361845 -20.791855 3.841560 -1.147906 2.437788 3.129716 -1.407210 0.608415 1.102514 -0.707983 -0.755938 2.240065 3.525574 -8.392783 -11.528676 5.159832 3.469469 -3.593811 2.186694 2.780708 0.000000 0.000000 0.000000 -5.600664 -23.483671 -55.602231 25.273440 -36.481401 8.452288 18.997531 -4.843397 -18.953998 0.000000 0.000000 0.000000 -7.125000 0.000000 0.000000 -9.124516 49.721901 1.070156 0.000000 0.000000 0.000000 -1.896288 -20.890198 44.590788 -41.866302 -49.136829 -19.839576 -26.330826 -4.679404 -15.060478 0.000000 0.000000 0.000000 7.125000 0.000000 0.000000 0.844910 13.269825 0.628536
0.197995 18.228500 0.096153 0.320272 -3.494682 5.354429 0.000000 0.000000 0.000000 -19.393914 -21.850120 -0.583120 0.682260 5.281017 14.711908 -1.583264 22.026283 -13.141236 0.462096 -4.359713 -12.091170 0.000000 0.000000 0.000000 17.973569 16.061024 -7.888005 -0.831253 -5.816184 16.252075 0.453139 -12.841139 -10.091953 -0.775824 5.623683 -15.696444 3.079966 -0.829430 0.528839 3.021983 -1.092319 0.298263 1.377341 -0.545461 0.010829 1.924473 1.879663 -8.006757 -11.059071 2.901908 3.019930 -3.910888 1.118604 2.656440 0.000000 0.000000 0.000000 -6.826617 -18.687196 -63.090193 22.668660 -33.724468 6.953441 15.809645 -6.549447 -20.461992 0.000000 0.000000 0.000000 -7.125000 0.000000 0.000000 -12.723877 50.739314 1.825085 0.000000 0.000000 0.000000 0.884391 -14.984118 56.937071 -35.805032 -45.378372 -15.383565 -26.548883 -13.312546 -13.119690 0.000000 0.000000 0.000000 7.125000 0.000000 0.000000 0.539066 15.376827 0.376947
0.234368 18.269587 0.225797 -1.060091 -3.890643 5.812246 0.000000 0.000000 0.000000 -19.389209 -27.788084 3.469118 0.567029 4.822919 13.404140 -2.410993 27.292136 -19.064380 0.011764 -0.697242 -1.916072 0.000000 0.000000 0.000000 19.603474 18.066202 -3.954416 -0.395439 -4.037676 11.182721 0.765653 -15.758240 -10.044994 -0.410110 4.111151 -11.389634 3.085764 -0.813693 -0.421058 2.855987 -1.104090 -0.105612 1.192151 -0.552157 0.125961 1.386978 0.702402 -7.477556 -10.333830 1.221362 1.904364 -3.604120 0.344667 2.034984 0.000000 0.000000 0.000000 -5.441345 -12.241851 -69.816066 25.503137 -36.713805 8.588896 16.018430 -9.660406 -24.183965 0.000000 0.000000 0.000000 -7.125000 0.000000 0.000000 -14.123444 54.464178 3.334591 0.000000 0.000000 0.000000 1.195539 -10.599010 70.358571 -34.676152 -44.579459 -14.585575 -29.429451 -18.088018 -11.331766 0.000000 0.000000 0.000000 7.125000 0.000000 0.000000 -1.596979 17.025564 -1.059852
0.267247 18.282455 0.286588 -1.728525 -4.685528 6.651477 0.000000 0.000000 0.000000 -19.390642 -31.058753 4.901179 0.531995 4.673592 12.979940 -2.736136 29.706718 -23.457820 0.062312 1.609559 4.427865 0.000000 0.000000 0.000000 20.149877 19.198843 -2.402397 -0.206243 -2.923995 8.067284 0.934413 -17.039764 -9.367095 -0.385733 3.987880 -11.042653 2.463743 -0.785976 -1.403812 2.656720 -1.105769 -0.158376 1.320460 -0.550395 0.630735 1.321673 -0.311932 -7.281977 -9.752925 -0.294823 0.319945 -3.418299 -0.347318 1.371893 0.000000 0.000000 0.000000 -3.171503 -5.616383 -67.019417 30.544310 -41.355013 11.767779 16.695250 -14.438808 -23.737351 0.000000 0.000000 0.000000 -7.125000 0.000000 0.000000 -13.230364 54.151222 3.016169 0.000000 0.000000 0.000000 -1.467017 -8.278660 77.538440 -37.390305 -46.445220 -16.522332 -28.909687 -19.778713 -9.785535 0.000000 0.000000 0.000000 7.125000 0.000000 0.000000 -1.360151 18.835688 -0.848567
